<svg width="72" height="72" viewBox="0 0 72 72" xmlns="http://www.w3.org/2000/svg"><title>add</title><path d="M35.996 12C49.25 12 60 22.74 60 35.996 60 49.256 49.252 60 35.996 60 22.74 60 12 49.255 12 35.996 12 22.74 22.74 12 35.996 12zm11.108 26.9A2.902 2.902 0 0 0 50 36a2.894 2.894 0 0 0-2.895-2.896H38.89v-8.21A2.89 2.89 0 0 0 35.99 22a2.894 2.894 0 0 0-2.896 2.895v8.21h-8.2A2.89 2.89 0 0 0 22 36c0 1.6 1.29 2.9 2.895 2.9h8.2v8.197A2.898 2.898 0 0 0 35.99 50a2.893 2.893 0 0 0 2.898-2.903V38.9h8.216z" fill="#474A56"/></svg>