<?xml version="1.0" encoding="utf-8"?>
<!-- Generator: Adobe Illustrator 15.0.2, SVG Export Plug-In . SVG Version: 6.00 Build 0)  -->
<!DOCTYPE svg PUBLIC "-//W3C//DTD SVG 1.1//EN" "http://www.w3.org/Graphics/SVG/1.1/DTD/svg11.dtd">
<svg version="1.1" id="Layer_1" xmlns="http://www.w3.org/2000/svg" xmlns:xlink="http://www.w3.org/1999/xlink" x="0px" y="0px"
	 width="56.693px" height="56.693px" viewBox="0 0 56.693 56.693" enable-background="new 0 0 56.693 56.693" xml:space="preserve">
<g>
	<path fill="#474A56" d="M18.839,39.326c0.725,0.476,2.181,1.029,3.904,1.029c3.859,0,5.616-2.449,5.616-4.728
		c0-1.579-0.844-2.916-2.199-3.636c1.075-0.762,1.67-1.868,1.67-3.17c0-1.933-1.403-3.881-4.539-3.881
		c-1.717,0-3.21,0.63-3.966,1.169c-0.224,0.159-0.312,0.45-0.216,0.708l0.508,1.353c0.066,0.177,0.211,0.312,0.391,0.367
		c0.181,0.055,0.377,0.023,0.531-0.087c0.512-0.367,1.447-0.795,2.394-0.795c1.162,0,1.801,0.52,1.801,1.464
		c0,1.26-1.468,1.718-2.457,1.718h-1.035c-0.336,0-0.608,0.271-0.608,0.606v1.396c0,0.335,0.271,0.606,0.608,0.606h1.035
		c0.488,0,2.92,0.104,2.944,2.151c0.01,0.522-0.184,1.026-0.53,1.378c-0.435,0.442-1.097,0.666-1.97,0.666
		c-1.159,0-2.26-0.478-2.731-0.76c-0.156-0.093-0.347-0.112-0.517-0.05c-0.171,0.06-0.307,0.195-0.368,0.367l-0.508,1.415
		C18.505,38.878,18.604,39.173,18.839,39.326z"/>
	<path fill="#474A56" d="M30.567,28.952c0.047,0.182,0.174,0.331,0.345,0.407c0.172,0.076,0.368,0.065,0.533-0.022l1.534-0.828
		v11.007c0,0.335,0.271,0.607,0.607,0.607h1.797c0.335,0,0.607-0.271,0.607-0.607V25.781c0-0.336-0.272-0.608-0.607-0.608h-1.586
		c-0.1,0-0.197,0.024-0.286,0.072l-3.002,1.606c-0.245,0.132-0.37,0.414-0.302,0.685L30.567,28.952z"/>
	<path fill="#474A56" d="M42.587,11.512H14.042c-2.058,0-3.733,1.675-3.733,3.733v28.608c0,2.059,1.675,3.733,3.733,3.733h28.545
		c2.059,0,3.733-1.676,3.733-3.733V15.245C46.32,13.187,44.646,11.512,42.587,11.512z M36.12,14.208c0.8,0,1.445,0.648,1.445,1.446
		c0,0.798-0.646,1.445-1.445,1.445c-0.797,0-1.445-0.646-1.445-1.445C34.675,14.856,35.322,14.208,36.12,14.208z M20.586,14.197
		c0.798,0,1.445,0.647,1.445,1.446s-0.647,1.445-1.445,1.445c-0.798,0-1.446-0.647-1.446-1.445
		C19.14,14.844,19.788,14.197,20.586,14.197z M43.891,43.854c0,0.719-0.585,1.304-1.305,1.304H14.042
		c-0.719,0-1.303-0.585-1.303-1.304V19.295h31.152V43.854z"/>
</g>
</svg>
