<svg width="72" height="72" viewBox="0 0 72 72" xmlns="http://www.w3.org/2000/svg"><title>close</title><path d="M52.97 19.028c-9.375-9.372-24.566-9.37-33.938 0-9.375 9.376-9.376 24.568-.002 33.94 9.372 9.374 24.57 9.376 33.943.003 9.372-9.37 9.368-24.567-.004-33.94zm-7.38 26.568a2.805 2.805 0 0 1-3.97.003l-5.63-5.63-5.612 5.616a2.806 2.806 0 1 1-3.967-3.967l5.615-5.616-5.615-5.617a2.802 2.802 0 0 1 .002-3.97 2.796 2.796 0 0 1 3.967 0L36 32.035l5.62-5.62a2.8 2.8 0 0 1 3.97 0 2.796 2.796 0 0 1 0 3.966L39.965 36l5.628 5.63a2.802 2.802 0 0 1-.002 3.966z" fill="#474A56"/></svg>