<svg width="72" height="72" viewBox="0 0 72 72" xmlns="http://www.w3.org/2000/svg"><title>flat</title><path d="M54.23 30.388l-11.58-2.862a2.264 2.264 0 0 0-.842-.043v-9.33a2.34 2.34 0 0 0 .843-2.172A2.327 2.327 0 0 0 40 14.03l-22.035 3.457a2.34 2.34 0 0 0-1.094 4.13V56.54c0 .805.65 1.46 1.45 1.46h35.1c.8 0 1.45-.655 1.45-1.46V34.662a2.34 2.34 0 0 0-.638-4.274zm-34.46-8.45l19.14-3.002v36.142h-7.317v-7.32h-4.505v7.32H19.77v-33.14zm32.197 33.14h-3.743v-3.743h-2.672v3.743h-3.744V32.433l10.16 2.304v20.34zm-24.88-31.95h4.506v4.426h-4.505v-4.427zm0 8.003h4.506v4.43h-4.505v-4.43zm0 8.007h4.506v4.426h-4.505v-4.426z" fill="#474A56"/></svg>