<?xml version="1.0" encoding="utf-8"?>
<!-- Generator: Adobe Illustrator 16.0.4, SVG Export Plug-In . SVG Version: 6.00 Build 0)  -->
<!DOCTYPE svg PUBLIC "-//W3C//DTD SVG 1.1//EN" "http://www.w3.org/Graphics/SVG/1.1/DTD/svg11.dtd">
<svg version="1.1" id="Layer_1" xmlns="http://www.w3.org/2000/svg" xmlns:xlink="http://www.w3.org/1999/xlink" x="0px" y="0px"
	 width="56.693px" height="56.693px" viewBox="0 0 56.693 56.693" enable-background="new 0 0 56.693 56.693" xml:space="preserve">
<g>
	<path fill="#474A56" d="M29.007,4.758c-1.298,0-2.352,1.053-2.352,2.352v7.646c0,1.297,1.054,2.35,2.352,2.35
		c1.299,0,2.352-1.053,2.352-2.35V7.11C31.358,5.811,30.306,4.758,29.007,4.758z"/>
	<path fill="#474A56" d="M29.007,43.39c-0.742,0-1.344,0.602-1.344,1.344v7.646c0,0.742,0.602,1.342,1.344,1.342
		s1.344-0.6,1.344-1.342v-7.646C30.351,43.991,29.749,43.39,29.007,43.39z"/>
	<path fill="#474A56" d="M51.642,28.905h-7.646c-0.464,0-0.839,0.375-0.839,0.838c0,0.465,0.375,0.84,0.839,0.84h7.646
		c0.464,0,0.84-0.375,0.84-0.84C52.481,29.28,52.105,28.905,51.642,28.905z"/>
	<path fill="#474A56" d="M15.865,29.743c0-1.02-0.827-1.846-1.847-1.846H6.371c-1.02,0-1.847,0.826-1.847,1.846
		c0,1.021,0.827,1.848,1.847,1.848h7.647C15.038,31.591,15.865,30.765,15.865,29.743z"/>
	<path fill="#474A56" d="M19.58,9.05c-0.603-1.044-1.938-1.401-2.981-0.799c-1.045,0.603-1.402,1.938-0.799,2.981l3.822,6.622
		c0.404,0.7,1.138,1.092,1.893,1.092c0.371,0,0.746-0.095,1.089-0.294c1.044-0.602,1.401-1.936,0.799-2.981L19.58,9.05z"/>
	<path fill="#474A56" d="M37.521,42.138c-0.325-0.562-1.043-0.754-1.606-0.43c-0.562,0.324-0.755,1.043-0.431,1.605l3.822,6.621
		c0.219,0.377,0.613,0.588,1.02,0.588c0.199,0,0.402-0.051,0.586-0.158c0.562-0.324,0.756-1.043,0.432-1.605L37.521,42.138z"/>
	<path fill="#474A56" d="M8.397,20.17l6.621,3.824c0.318,0.184,0.664,0.27,1.006,0.27c0.695,0,1.373-0.361,1.746-1.008
		c0.558-0.964,0.227-2.195-0.736-2.752l-6.622-3.823c-0.964-0.556-2.194-0.226-2.752,0.738S7.435,19.615,8.397,20.17z"/>
	<path fill="#474A56" d="M49.112,40.188l-6.622-3.822c-0.481-0.277-1.097-0.111-1.376,0.369c-0.277,0.482-0.113,1.1,0.369,1.377
		l6.621,3.82c0.159,0.094,0.333,0.137,0.504,0.137c0.348,0,0.686-0.182,0.873-0.504C49.759,41.083,49.595,40.468,49.112,40.188z"/>
	<path fill="#474A56" d="M41.986,22.92c0.114,0,0.229-0.029,0.335-0.09l6.623-3.822c0.321-0.186,0.432-0.596,0.246-0.918
		c-0.186-0.32-0.598-0.432-0.918-0.246l-6.623,3.824c-0.32,0.186-0.431,0.596-0.246,0.916C41.528,22.801,41.755,22.92,41.986,22.92z
		"/>
	<path fill="#474A56" d="M17.479,36.399c-0.463-0.805-1.491-1.076-2.293-0.615l-6.621,3.824c-0.803,0.463-1.078,1.49-0.615,2.293
		c0.311,0.539,0.876,0.84,1.455,0.84c0.285,0,0.574-0.072,0.838-0.225l6.621-3.824C17.669,38.229,17.942,37.202,17.479,36.399z"/>
	<path fill="#474A56" d="M36.25,17.2c0.079,0.046,0.166,0.068,0.251,0.068c0.174,0,0.344-0.092,0.437-0.253l3.823-6.621
		c0.139-0.241,0.057-0.55-0.186-0.688c-0.24-0.14-0.549-0.057-0.688,0.184l-3.822,6.623C35.927,16.752,36.009,17.06,36.25,17.2z"/>
	<path fill="#474A56" d="M22.267,41.417c-0.722-0.418-1.646-0.17-2.064,0.553l-3.82,6.621c-0.419,0.723-0.17,1.646,0.552,2.064
		c0.239,0.139,0.498,0.203,0.755,0.203c0.521,0,1.03-0.271,1.309-0.756l3.822-6.621C23.237,42.759,22.989,41.833,22.267,41.417z"/>
</g>
</svg>
