<svg width="72" height="72" viewBox="0 0 72 72" xmlns="http://www.w3.org/2000/svg"><title>no</title><path d="M56.76 19.015c-.675-.194-1.863-.417-3.637-.688-2.372-.358-3.192-.346-3.605-.31a1.37 1.37 0 0 1-.058.006c-.468.056-1.295.262-3.573 1.416-1.668.846-4.13 2.496-7.523 5.04a107.437 107.437 0 0 0-4.203 3.32 146.907 146.907 0 0 0-10.64-6.29 3.27 3.27 0 0 0-.13-.06c-.563-.207-5.563-2.036-7.693-1.835-1.184.112-1.638.84-1.667 1.485-.13 2.742.17 4.216.99 4.927.36.32 1.262.96 4.807 2.714a101.52 101.52 0 0 1 8.222 4.516 146.762 146.762 0 0 0-8.456 8.815 1.76 1.76 0 0 0-.088.115c-1.904 2.857-4.055 6.584-3.493 8.132.165.45.52.784.973.915 1.67.482 2.904.68 3.774.598.508-.05.91-.188 1.238-.423.394-.28 1.227-1.013 3.746-4.053 2.69-3.278 5.722-6.505 9.032-9.604a93.543 93.543 0 0 1 3.066 2.287c5.64 4.405 9.93 8.442 12.742 12.005.755 1 1.024 1.292 1.175 1.43.44.414.89.517 1.193.53a1.5 1.5 0 0 0 .215-.008c.59-.055 1.297-.507 1.343-1.597.03-.688-.026-1.9-.176-3.694-.207-2.457-.416-3.255-.556-3.644-.16-.445-.555-1.204-2.204-3.156-1.208-1.422-3.44-3.498-6.636-6.17a103.978 103.978 0 0 0-4.13-3.27l.076-.062c5.586-4.48 10.5-7.725 14.6-9.637 1.145-.503 1.488-.695 1.656-.807.41-.277.676-.632.796-1.045.206-.706-.08-1.572-1.178-1.893z" fill="#474A56"/></svg>