<svg width="72" height="72" viewBox="0 0 72 72" xmlns="http://www.w3.org/2000/svg"><title>pig</title><g fill="#474A56"><path d="M59.542 37.805c.344.11.535.483.428.83-.313 1.008-1.403 2.778-3.272 2.258a4.733 4.733 0 0 1-.725-.264c-.66.49-1.397.782-1.96.955a14.234 14.234 0 0 1-1.496 4.565v7.465C52.517 54.93 51.46 56 50.16 56h-3.583c-1.3 0-2.356-1.07-2.356-2.385v-.443a15.112 15.112 0 0 1-9.634.02v.423c0 1.315-1.058 2.385-2.358 2.385h-3.582c-1.3 0-2.357-1.07-2.357-2.385V49.42a10.26 10.26 0 0 1-9.818-3.546h-3.164c-.72 0-1.307-.594-1.307-1.322v-6.81c0-.728.588-1.322 1.308-1.322h1.468c1.184-3.398 4.19-5.932 7.792-6.577V26.97c0-.622.487-1.172 1.087-1.303 0 0 .12-.026.35-.026.81 0 2.78.374 5.023 3.49C31.78 26.49 35.464 25 39.37 25c8.162 0 14.804 6.5 14.804 14.486 0 .214-.01.43-.02.645.23-.092.47-.204.704-.347a2.692 2.692 0 0 1-.388-.667c-.647-1.61.424-3.49.47-3.567a.68.68 0 0 1 .2-.217c.08-.053.79-.51 1.5-.113.63.352.915 1.184.877 2.544a3.48 3.48 0 0 1-.557 1.833c.026.005.052.013.08.02 1.137.318 1.675-1.363 1.68-1.382a.656.656 0 0 1 .822-.43zm-3.332-.08c.033-1.13-.204-1.348-.206-1.35a.208.208 0 0 1-.022.01c-.24.49-.598 1.5-.3 2.236.04.097.092.19.152.276.222-.323.364-.71.376-1.17zm-35.372.477c.48 0 .87-.618.87-1.38 0-.763-.39-1.38-.87-1.38s-.87.617-.87 1.38c0 .762.39 1.38.87 1.38zm22.39-7.653c-4.418-1.663-6.966-.006-7.072.065a.663.663 0 0 0-.183.912c.195.304.6.39.903.193.087-.055 2.148-1.342 5.898.067a.654.654 0 0 0 .84-.39.662.662 0 0 0-.385-.85z"/><path d="M37.96 23.794a3.78 3.78 0 0 1-.795-.584c-.71-.693-1.137-1.742-1.273-3.15h-.946c-.088 0-.137-.062-.137-.19 0-.127.05-.283.14-.47.096-.19.176-.284.24-.284l.64-.002v-.267c0-.217.01-.533.034-.946h-.92c-.088 0-.137-.06-.137-.185 0-.127.053-.287.143-.475.097-.19.176-.285.24-.285h.748c.32-2.587 1.542-3.88 3.663-3.88.935 0 1.74.24 2.416.72.678.483 1.01 1.08 1.01 1.797a.87.87 0 0 1-.237.618.762.762 0 0 1-.58.254c-.256 0-.44-.065-.554-.193-.122-.127-.23-.33-.35-.594-.143-.354-.316-.625-.513-.808-.2-.188-.535-.282-1.015-.282-.543 0-.967.193-1.262.574-.295.382-.487.98-.57 1.794h2.4c.098 0 .146.066.15.195a1.1 1.1 0 0 1-.14.48c-.09.177-.17.27-.24.27H37.89l-.017.73c0 .224.003.382.016.48h2.456c.098.003.15.064.15.19 0 .142-.048.305-.14.487-.09.18-.17.27-.24.27H37.93c.175 1.785.747 2.674 1.713 2.674.365 0 .694-.084.995-.26.3-.17.59-.58.868-1.22.18-.417.336-.677.46-.777a.656.656 0 0 1 .42-.155c.298 0 .53.087.698.256.165.172.248.41.248.72 0 .73-.358 1.403-1.07 2.023a3.775 3.775 0 0 1-.886.554c1.835.228 3.57.75 5.164 1.52a9.617 9.617 0 0 0 2.76-6.74c0-2.58-1.003-5-2.824-6.826A9.594 9.594 0 0 0 39.65 9C34.33 9 30 13.33 30 18.65c0 2.51.97 4.79 2.546 6.51a16.71 16.71 0 0 1 5.415-1.366z"/></g></svg>