<?xml version="1.0" encoding="utf-8"?>
<!-- Generator: Adobe Illustrator 16.0.4, SVG Export Plug-In . SVG Version: 6.00 Build 0)  -->
<!DOCTYPE svg PUBLIC "-//W3C//DTD SVG 1.1//EN" "http://www.w3.org/Graphics/SVG/1.1/DTD/svg11.dtd">
<svg version="1.1" id="Layer_1" xmlns="http://www.w3.org/2000/svg" xmlns:xlink="http://www.w3.org/1999/xlink" x="0px" y="0px"
	 width="56.693px" height="56.693px" viewBox="0 0 56.693 56.693" enable-background="new 0 0 56.693 56.693" xml:space="preserve">
<g>
	<path fill="#474A56" d="M28.722,27.906c1.38,0,2.498-1.119,2.498-2.5V7.009c0-1.38-1.118-2.497-2.498-2.497
		c-1.379,0-2.496,1.117-2.496,2.497v18.397C26.226,26.787,27.343,27.906,28.722,27.906z"/>
	<path fill="#474A56" d="M39.839,12.971c-1.187-0.7-2.718-0.309-3.419,0.88c-0.702,1.187-0.31,2.718,0.878,3.419
		c5.124,3.029,8.307,8.601,8.307,14.544c0,9.311-7.573,16.883-16.883,16.883c-9.309,0-16.882-7.572-16.882-16.883
		c0-5.943,3.183-11.514,8.305-14.543c1.188-0.7,1.581-2.233,0.88-3.42c-0.702-1.188-2.234-1.58-3.421-0.879
		C10.968,16.894,6.845,24.116,6.845,31.814c0,12.064,9.814,21.879,21.877,21.879s21.877-9.814,21.877-21.879
		C50.599,24.114,46.476,16.893,39.839,12.971z"/>
</g>
</svg>
