<?xml version="1.0" encoding="UTF-8"?>
<svg width="72px" height="72px" viewBox="0 0 72 72" version="1.1" xmlns="http://www.w3.org/2000/svg" xmlns:xlink="http://www.w3.org/1999/xlink">
    <!-- Generator: Sketch 46.2 (44496) - http://www.bohemiancoding.com/sketch -->
    <title>support</title>
    <desc>Created with Sketch.</desc>
    <defs></defs>
    <g id="Page-1" stroke="none" stroke-width="1" fill="none" fill-rule="evenodd">
        <g id="support" fill="#474A56">
            <path d="M58.9,34.09 C58.9,21.36 48.604,11 35.95,11 C23.296,11 13,21.36 13,34.09 C13,38.08 14.037,42 15.987,45.46 L15.987,48.07 C15.987,49.21 16.909,50.13 18.046,50.13 L22.907,50.13 C24.043,50.13 24.965,49.21 24.965,48.07 L24.965,34.44 C24.965,33.3 24.043,32.38 22.907,32.38 L18.046,32.38 C17.739,32.38 17.448,32.45 17.185,32.57 C17.957,22.82 26.077,15.12 35.95,15.12 C45.832,15.12 53.955,22.83 54.717,32.59 C54.444,32.46 54.14,32.38 53.815,32.38 L48.954,32.38 C47.817,32.38 46.895,33.3 46.895,34.44 L46.895,48.07 C46.895,49.21 47.817,50.13 48.954,50.13 L50.748,50.13 C48.364,53.25 44.553,55.56 40.077,56.42 C39.639,55.82 38.932,55.42 38.13,55.42 L34.219,55.42 C32.893,55.42 31.813,56.5 31.813,57.82 C31.813,59.15 32.893,60.23 34.219,60.23 L38.13,60.23 C39.241,60.23 40.168,59.47 40.445,58.45 C45.998,57.38 50.651,54.28 53.241,50.13 L53.815,50.13 C54.952,50.13 55.873,49.21 55.873,48.07 L55.873,45.53 C57.849,42.06 58.9,38.11 58.9,34.09" id="Fill-995"></path>
        </g>
    </g>
</svg>