<?xml version="1.0" encoding="utf-8"?>
<!-- Generator: Adobe Illustrator 15.0.2, SVG Export Plug-In . SVG Version: 6.00 Build 0)  -->
<!DOCTYPE svg PUBLIC "-//W3C//DTD SVG 1.1//EN" "http://www.w3.org/Graphics/SVG/1.1/DTD/svg11.dtd">
<svg version="1.1" id="Layer_1" xmlns="http://www.w3.org/2000/svg" xmlns:xlink="http://www.w3.org/1999/xlink" x="0px" y="0px"
	 width="56.693px" height="56.693px" viewBox="0 0 56.693 56.693" enable-background="new 0 0 56.693 56.693" xml:space="preserve">
<g>
	<path fill="#474A56" d="M24.747,36.145H24.74v7.843h7.883v-7.852c-1.081-0.526-2.444-0.846-3.928-0.846
		C27.202,35.291,25.833,35.611,24.747,36.145z"/>
	<path fill="#474A56" d="M31.336,24.341c1.134-0.407,1.288-0.998,1.288-1.577v-1.993c-1.081,0.529-2.442,0.848-3.928,0.848
		c-1.499,0-2.869-0.325-3.956-0.86v2.005c0,0.576,0.152,1.165,1.262,1.571c0.053,0.02,0.105,0.042,0.157,0.064
		c1.229,0.456,2.014,1.034,2.509,1.681c0.479-0.615,1.22-1.166,2.36-1.607C31.128,24.423,31.23,24.38,31.336,24.341z"/>
	<path fill="#474A56" d="M32.774,28.19c0.079-0.027,0.152-0.062,0.223-0.102c2.419-0.952,3.801-2.882,3.801-5.324V11.233
		c0-0.705-0.584-1.276-1.305-1.276H21.872c-0.72,0-1.303,0.571-1.303,1.276v11.531c0,2.453,1.393,4.392,3.826,5.337
		c0.049,0.025,0.101,0.046,0.154,0.065c0.48,0.167,0.676,0.273,0.749,0.323c0.021,0.134,0.021,0.417,0.021,0.532
		c0,0.178,0,0.411-0.014,0.539c-0.059,0.036-0.173,0.097-0.381,0.18c-2.728,0.872-4.355,2.934-4.355,5.522v11.529
		c0,0.705,0.583,1.276,1.303,1.276h13.62c0.722,0,1.305-0.571,1.305-1.276V35.262c0-2.677-1.729-4.764-4.634-5.6
		c-0.068-0.033-0.115-0.061-0.146-0.081c-0.014-0.127-0.014-0.359-0.014-0.536c0-0.116,0-0.399,0.021-0.532
		C32.097,28.463,32.293,28.357,32.774,28.19z M29.403,29.532c0.036,0.893,0.268,1.826,1.762,2.486
		c0.06,0.027,0.122,0.049,0.186,0.066c1.83,0.504,2.838,1.633,2.838,3.178v0.883v9.372H23.175v-9.372v-0.883
		c0-1.502,0.896-2.578,2.591-3.111c0.029-0.008,0.057-0.018,0.086-0.028c1.671-0.654,2.003-1.5,2.062-2.591
		c0.008-0.164,0.011-0.335,0.011-0.511c0-1.583-0.359-2.479-2.371-3.209c-0.034-0.017-0.07-0.033-0.106-0.047
		c-1.508-0.554-2.273-1.563-2.273-3.001v-2.102v-8.156h11.013v8.156v2.102c0,1.446-0.777,2.458-2.312,3.014
		c-0.066,0.022-0.131,0.052-0.19,0.086c-1.94,0.725-2.29,1.619-2.29,3.182C29.396,29.205,29.396,29.368,29.403,29.532z"/>
</g>
</svg>
