<svg width="72" height="72" viewBox="0 0 72 72" xmlns="http://www.w3.org/2000/svg"><title>warning</title><path d="M57.384 48.908L40.117 18.404a4.73 4.73 0 0 0-8.235 0L14.617 48.908a4.76 4.76 0 0 0 .026 4.733A4.735 4.735 0 0 0 18.735 56h34.53c1.686 0 3.244-.9 4.092-2.36a4.763 4.763 0 0 0 .027-4.732zM38.36 50.395a2.983 2.983 0 0 1-2.04.777 3.06 3.06 0 0 1-2.064-.766c-.598-.522-.903-1.252-.903-2.17 0-.808.287-1.504.852-2.07a2.84 2.84 0 0 1 2.08-.852c.813 0 1.518.285 2.095.85.577.567.87 1.264.87 2.07 0 .907-.3 1.632-.89 2.16zm.765-19.642l-.752 8.638c-.084 1.077-.266 1.888-.554 2.477-.32.65-.874.997-1.607.997-.747 0-1.297-.34-1.59-.978-.263-.57-.443-1.395-.552-2.528l-.56-8.406c-.106-1.66-.16-2.82-.16-3.543 0-1.047.285-1.88.845-2.48.565-.607 1.316-.915 2.227-.915 1.125 0 1.894.41 2.288 1.217.362.744.538 1.772.538 3.142.002.777-.04 1.577-.123 2.38z" fill="#474A56"/></svg>