<svg width="72" height="72" viewBox="0 0 72 72" xmlns="http://www.w3.org/2000/svg"><title>yes</title><path d="M57.2 19.53c-.592-.138-1.664-.272-3.28-.412-1.658-.14-2.682-.154-3.225-.05-.55.11-1.544.62-3.038 1.563-1.45.92-3.674 2.736-6.606 5.39a109.745 109.745 0 0 0-8.505 8.648 145.618 145.618 0 0 0-7.374 9.087c-.89-2.68-1.8-4.567-2.785-5.746-1.108-1.33-2.114-2.086-3.072-2.308-.767-.178-1.755-.007-3.026.522-1.304.542-2.063 1.243-2.25 2.084-.144.634.152 1.55.933 2.885a44.1 44.1 0 0 1 3.425 7.306c.576 1.553.968 2.5 1.202 2.89.196.327.687.764 2.767 1.244 1.062.247 1.936.37 2.6.37.71 0 1.213-.14 1.532-.42.522-.44 1.562-1.788 3.18-4.12A103.727 103.727 0 0 1 43.016 32.7c4.966-4.802 9.366-8.34 13.074-10.512 1.135-.634 1.35-.808 1.427-.87.242-.198.397-.44.46-.71.09-.412-.065-.91-.777-1.075z" fill="#474A56"/></svg>